<?xml version="1.0" encoding="UTF-8"?>
<!-- Created with Inkscape (http://www.inkscape.org/) -->
<svg width="70" height="24" version="1.1" viewBox="0 0 70 24" xmlns="http://www.w3.org/2000/svg">
 <g stroke-width=".15035" aria-label="katsha">
  <path d="m13.616 19.58h-3.07l-2.491-4.2936-1.5295 1.8245v2.4691h-2.6658v-16.388h2.6658v9.7781l3.6163-4.3155h3.4852l-3.7474 4.4684z"/>
  <path d="m22.859 8.6551h2.6658v10.925h-2.6658l-0.12018-1.3547q-0.44794 0.73199-1.1909 1.1909-0.73199 0.44794-1.7371 0.44794-1.2127 0-2.2725-0.45886-1.0598-0.45886-1.8682-1.2673-0.79754-0.80847-1.2564-1.8682-0.44794-1.0597-0.44794-2.2725 0-1.169 0.42608-2.196 0.43701-1.027 1.2127-1.8027 0.77569-0.77569 1.7917-1.2127 1.016-0.43701 2.185-0.43701 1.0816 0 1.9338 0.48071 0.86309 0.48071 1.464 1.2236zm-3.1137 8.6419q0.85217 0 1.5077-0.42608t1.027-1.1472q0.37146-0.73199 0.37146-1.606 0-0.88494-0.37146-1.606-0.37146-0.73199-1.0379-1.1581-0.65552-0.42608-1.4968-0.42608t-1.5405 0.43701q-0.68829 0.42608-1.1034 1.1472-0.40424 0.72107-0.40424 1.606t0.41516 1.606q0.41516 0.72107 1.1034 1.1472 0.69922 0.42608 1.5295 0.42608z"/>
  <path d="m33.566 11.321h-2.1195v8.2595h-2.6658v-8.2595h-1.6169v-2.6658h1.6169v-3.4305h2.6658v3.4305h2.1195z"/>
  <path d="m38.592 19.777q-0.85217-0.05463-1.6497-0.33868-0.78662-0.29498-1.3984-0.79754-0.61181-0.50256-0.93957-1.2018l2.2506-0.96142q0.1311 0.2185 0.42608 0.46979 0.29498 0.24036 0.69922 0.40423 0.41516 0.16388 0.9068 0.16388 0.41516 0 0.78662-0.10925 0.38238-0.12018 0.61181-0.36053 0.24036-0.24036 0.24036-0.62274 0-0.40423-0.28406-0.62274-0.27313-0.22943-0.69922-0.33868-0.41516-0.12018-0.80847-0.2185-1.0379-0.20758-1.9338-0.64459-0.88494-0.43701-1.4312-1.1253-0.53534-0.69922-0.53534-1.6825 0-1.0816 0.56811-1.8682 0.57904-0.78662 1.4968-1.2127 0.92865-0.42608 1.9993-0.42608 1.3001 0 2.3817 0.54626 1.0925 0.53534 1.7262 1.5186l-2.1086 1.2455q-0.15295-0.26221-0.42608-0.48071-0.27313-0.22943-0.62274-0.37146-0.34961-0.15295-0.73199-0.1748-0.49164-0.02185-0.89587 0.0874-0.40423 0.10925-0.65552 0.37146-0.24036 0.26221-0.24036 0.69922 0 0.41516 0.32776 0.62274 0.32776 0.19665 0.78662 0.30591 0.46979 0.10925 0.89587 0.24036 0.96142 0.31683 1.8027 0.77569 0.85217 0.45886 1.3657 1.1253 0.51349 0.66644 0.49164 1.5951 0 1.0597-0.63366 1.8573-0.63366 0.78662-1.6388 1.2018-0.9942 0.41516-2.1304 0.32776z"/>
  <path d="m54.87 12.676v6.9048h-2.6658v-6.2055q0-0.64459-0.31683-1.169-0.31683-0.53534-0.85217-0.84124-0.52441-0.31683-1.169-0.31683-0.64459 0-1.1799 0.31683-0.52441 0.30591-0.84124 0.84124-0.30591 0.52441-0.30591 1.169v6.2055h-2.6658l-0.010925-16.388h2.6658l0.01093 6.435q0.55719-0.58996 1.3329-0.92865 0.77569-0.34961 1.6716-0.34961 1.1909 0 2.1741 0.58996 0.98327 0.57904 1.5623 1.5623 0.58996 0.97235 0.58996 2.1741z"/>
  <path d="m65.074 8.6551h2.6658v10.925h-2.6658l-0.12018-1.3547q-0.44794 0.73199-1.1909 1.1909-0.73199 0.44794-1.7371 0.44794-1.2127 0-2.2725-0.45886-1.0597-0.45886-1.8682-1.2673-0.79754-0.80847-1.2564-1.8682-0.44794-1.0597-0.44794-2.2725 0-1.169 0.42608-2.196 0.43701-1.027 1.2127-1.8027 0.77569-0.77569 1.7917-1.2127t2.185-0.43701q1.0816 0 1.9338 0.48071 0.8631 0.48071 1.464 1.2236zm-3.1137 8.6419q0.85217 0 1.5077-0.42608t1.027-1.1472q0.37146-0.73199 0.37146-1.606 0-0.88494-0.37146-1.606-0.37146-0.73199-1.0379-1.1581-0.65552-0.42608-1.4968-0.42608t-1.5405 0.43701q-0.68829 0.42608-1.1035 1.1472-0.40423 0.72107-0.40423 1.606t0.41516 1.606q0.41516 0.72107 1.1034 1.1472 0.69922 0.42608 1.5295 0.42608z"/>
 </g>
</svg>
