<?xml version="1.0" encoding="UTF-8"?>
<!-- Created with Inkscape (http://www.inkscape.org/) -->
<svg width="200mm" height="200mm" version="1.1" viewBox="0 0 200 200" xml:space="preserve" xmlns="http://www.w3.org/2000/svg" xmlns:xlink="http://www.w3.org/1999/xlink"><defs><linearGradient id="linearGradient4471" x1="-11.287" x2="41.574" y1="74.188" y2="117.99" gradientUnits="userSpaceOnUse"><stop stop-color="#0050aa" stop-opacity=".76558" offset="0"/><stop stop-color="#0056b8" offset="1"/></linearGradient><linearGradient id="linearGradient3643" x1="72.695" x2="70.077" y1="144.71" y2="93.101" gradientUnits="userSpaceOnUse"><stop stop-color="#0052ad" offset="0"/><stop stop-color="#009be7" offset="1"/></linearGradient></defs><g transform="translate(-37.275 -48.251)"><g transform="matrix(2.2366 0 0 2.2366 -93.163 -120.64)"><g transform="rotate(180 63.85 114.36)"><path d="m47.068 120.49c-9.9592 6.045-25.563 16.741-35.539 22.868 17.54-25.403-14.999-42.814-23.734-54.455-9.0364-12.043 7.0335-25.45 18.43-18.531 6.7666 4.1083 22.073 14.452 40.568 26.49 9.6178 6.2187 9.6614 17.218 0.27554 23.628z" fill="url(#linearGradient4471)" stroke-width=".26458"/><path d="m47.068 97.038c-9.8022-6.4118-25.705-16.811-35.539-23.325 17.54 25.403-14.999 43.089-23.734 54.73-9.0364 12.043 6.9994 25.26 18.396 18.341 6.7666-4.1083 22.25-14.329 40.878-26.299 9.3458-6.3684 9.3859-17.037 1e-6 -23.447z" fill="#009ae6" fill-opacity=".90584" stroke-width=".26458"/></g><path d="m78.521 76.954c-8.3223 0-15.022 6.6996-15.022 15.022v56.49c0 8.3223 6.7001 15.022 15.022 15.022 8.3223 0 15.022-5.7531 15.022-14.075v-3.7742c-1.5364-1.0121-2.8156-1.8577-4.4225-2.914-3.9869-2.6099-8.1562-5.3416-11.414-7.4724-3.0644-1.9133-6.2058-5.9663-7.6683-8.8317-0.01883-0.037-0.03483-0.0745-0.05323-0.11162-0.10603-0.21784-0.21053-0.43611-0.30489-0.65629-0.11132-0.25439-0.21235-0.50997-0.30799-0.76688v-5.2e-4c-2.3627-6.346 0.04202-14.589 7.1861-19.457 6.0375-3.8798 11.666-7.5211 16.984-10.968v-3.6719c0-8.3223-6.7001-13.833-15.022-13.833z" fill="url(#linearGradient3643)" stroke-width=".28057"/><path d="m63.499 124.62v23.833c0 8.3222 6.7001 15.022 15.022 15.022 8.3222 0 15.022-5.7657 15.022-14.088v-3.684c-4.4519-2.9346-9.2901-6.13-14.592-9.6154-4.827-2.971-6.5585-5.78-8.3456-8.6327-1.1243-0.75678-6.2295-2.0086-7.1067-2.835z" fill="#009be7" fill-opacity=".78943" stroke-width=".28057"/></g></g></svg>
